/* XPM */
static char *cfcbcce4152d4d6efb0ef775647131d7KnyFBaVNkf22ay9j[] = {
/* columns rows colors chars-per-pixel */
"32 32 2 1 ",
"  c black",
". c white",
/* pixels */
"                                ",
"                                ",
"                                ",
"                                ",
"                                ",
"                                ",
"                                ",
"                                ",
"                                ",
"                                ",
"                                ",
"                                ",
"                                ",
"                                ",
"         ..............         ",
"         ..............         ",
"       ..              ..       ",
"       ..              ..       ",
"       ..              ..       ",
"       ..              ..       ",
"       ..              ..       ",
"       ..              ..       ",
"       ..................       ",
"       ..................       ",
"       ..      ..      ..       ",
"       ..      ..      ..       ",
"       ..              ..       ",
"       ..              ..       ",
"       ..................       ",
"       ..................       ",
"                                ",
"                                "
};
