/* XPM */
static char *_bfd9ed00edb4b3d81ebc398cbfc8aefybRX4bTYMoA4clbd[] = {
/* columns rows colors chars-per-pixel */
"32 32 2 1 ",
"  c black",
". c yellow",
/* pixels */
"                                ",
"                                ",
"                                ",
"                                ",
"                                ",
"                                ",
"                                ",
"                                ",
"                                ",
"             ......             ",
"             ......             ",
"           ....  ....           ",
"           ....  ....           ",
"         ....  ..  ....         ",
"         ....  ..  ....         ",
"         ....  ........         ",
"         ....  ........         ",
"         ....  ..  ....         ",
"         ....  ..  ....         ",
"           ....  ....           ",
"           ....  ....           ",
"             ......             ",
"             ......             ",
"                                ",
"                                ",
"                                ",
"                                ",
"                                ",
"                                ",
"                                ",
"                                ",
"                                "
};
