/* XPM */
static char *_11794e0efa346548af8f4aa97839575JwuKbjC9lC9B0VU8[] = {
/* columns rows colors chars-per-pixel */
"32 32 2 1 ",
"  c black",
". c cyan",
/* pixels */
"                                ",
"                                ",
"            ........            ",
"            ........            ",
"        ................        ",
"        ................        ",
"            ........            ",
"            ........            ",
"              ....              ",
"              ....              ",
" ......    ............         ",
" ......    ............         ",
"     ..  ..   ....     ..       ",
"     ..  ..   ....     ..       ",
"     ....     ....     ..       ",
"     ....     ....     ..       ",
"              ....   ..         ",
"              ....   ..         ",
"              ....              ",
"              ....              ",
"            ........            ",
"            ........            ",
"          ..        ..          ",
"          ..        ..          ",
"          ..        ..          ",
"          ..        ..          ",
"          ..        ..          ",
"          ..        ..          ",
"        ....      ....          ",
"        ....      ....          ",
"                                ",
"                                "
};
