/* XPM */
static char *_d1764eaea394961fb2c890876c0a9dcPyMFBxiFfItqVBTB[] = {
/* columns rows colors chars-per-pixel */
"32 32 2 1 ",
"  c black",
". c magenta",
/* pixels */
"                                ",
"                                ",
"            ........            ",
"            ........            ",
"        ................        ",
"        ................        ",
"            ........            ",
"            ........            ",
"              ....              ",
"              ....              ",
"         ..............         ",
"         ..............         ",
"       ..     ....     ..       ",
"       ..     ....     ..       ",
"       ..     ....     ..       ",
"       ..     ....     ..       ",
"   ..  ..     ....   ..         ",
"   ..  ..     ....   ..         ",
"     ..       ....              ",
"     ..       ....              ",
"   ..  ..   ........            ",
"   ..  ..   ........            ",
" ..       ..        ..          ",
" ..       ..        ..          ",
"          ..        ..          ",
"          ..        ..          ",
"          ..        ..          ",
"          ..        ..          ",
"      ....            ....      ",
"      ....            ....      ",
"                                ",
"                                "
};
