/* XPM */
static char *ade3ffa51ca946e0a50e91fabc81d741uYZl1nkMRgHngpbI[] = {
/* columns rows colors chars-per-pixel */
"32 32 2 1 ",
"  c black",
". c cyan",
/* pixels */
"                                ",
"                                ",
"            ........            ",
"            ........            ",
"        ................        ",
"        ................        ",
"            ........            ",
"            ........            ",
"              ....              ",
"              ....              ",
"           ..........           ",
"           ..........           ",
"         ..   ....   ..         ",
"         ..   ....   ..         ",
"         ..   ....   ..         ",
"         ..   ....   ..         ",
"     ..  ..   ....   ..  ..     ",
"     ..  ..   ....   ..  ..     ",
"   ..  ..     ....     ..  ..   ",
"   ..  ..     ....     ..  ..   ",
" ..         ........         .. ",
" ..         ........         .. ",
"          ..        ..          ",
"          ..        ..          ",
"          ..        ..          ",
"          ..        ..          ",
"          ..        ..          ",
"          ..        ..          ",
"      ....            ....      ",
"      ....            ....      ",
"                                ",
"                                "
};
