/* XPM */
static char *result[] = {
/* columns rows colors chars-per-pixel */
"32 32 3 1 ",
"  c black",
". c yellow",
"X c white",
/* pixels */
"                                ",
"                                ",
"                                ",
"            XXXXXXXXXX          ",
"            XXXXXXXXXX          ",
"          XX..........XX        ",
"          XX..........XX        ",
"        XX..............XX      ",
"        XX..............XX      ",
"      XX..................XX    ",
"      XX..................XX    ",
"    XX......................XX  ",
"    XX......................XX  ",
"    XX......................XX  ",
"    XX......................XX  ",
"    XX......................XX  ",
"    XX......................XX  ",
"    XX......................XX  ",
"    XX......................XX  ",
"    XX......................XX  ",
"    XX......................XX  ",
"      XX..................XX    ",
"      XX..................XX    ",
"        XX..............XX      ",
"        XX..............XX      ",
"          XX..........XX        ",
"          XX..........XX        ",
"            XXXXXXXXXX          ",
"            XXXXXXXXXX          ",
"                                ",
"                                ",
"                                "
};
