/* XPM */
static char *result[] = {
/* columns rows colors chars-per-pixel */
"32 32 3 1 ",
"  c black",
". c green",
"X c white",
/* pixels */
"                                ",
"                                ",
"                                ",
"                                ",
"              XXXXXXXXXXXXXXXX  ",
"              XXXXXXXXXXXXXXXX  ",
"              XXXXXXXXXXXXXXXX  ",
"              XXXXXXXXXXXXXXXX  ",
"                XX........XX    ",
"                XX........XX    ",
"                XX........XX    ",
"                XX........XX    ",
"                XX........XX    ",
"                XX........XX    ",
"                XX........XX    ",
"                XX........XX    ",
"                XX........XX    ",
"                XX........XX    ",
"        XXXXXXXX..........XX    ",
"        XXXXXXXX..........XX    ",
"      XX..................XX    ",
"      XX..................XX    ",
"    XX....................XX    ",
"    XX....................XX    ",
"    XX....................XX    ",
"    XX....................XX    ",
"    XX....................XX    ",
"    XX....................XX    ",
"    XXXXXXXXXXXXXXXXXXXXXX      ",
"    XXXXXXXXXXXXXXXXXXXXXX      ",
"                                ",
"                                "
};
