/* XPM */
static char *result[] = {
/* columns rows colors chars-per-pixel */
"32 32 3 1 ",
"  c black",
". c red",
"X c white",
/* pixels */
"                                ",
"                                ",
"                                ",
"       XXXXXX      XXXXXX       ",
"       XXXXXX      XXXXXX       ",
"     XX......XX  XX......XX     ",
"     XX......XX  XX......XX     ",
"   XX..........XX..........XX   ",
"   XX..........XX..........XX   ",
"   XX......................XX   ",
"   XX......................XX   ",
"   XX......................XX   ",
"   XX......................XX   ",
"   XX......................XX   ",
"   XX......................XX   ",
"   XX......................XX   ",
"   XX......................XX   ",
"     XX..................XX     ",
"     XX..................XX     ",
"       XX..............XX       ",
"       XX..............XX       ",
"         XX..........XX         ",
"         XX..........XX         ",
"           XX......XX           ",
"           XX......XX           ",
"             XX..XX             ",
"             XX..XX             ",
"               XX               ",
"               XX               ",
"                                ",
"                                ",
"                                "
};
