/* XPM */
static char *e8ad2b7d5eed43979f05effe5c7f580avUzmOq7OEQ3ekc1v[] = {
/* columns rows colors chars-per-pixel */
"32 32 2 1 ",
"  c black",
". c green",
/* pixels */
"                                ",
"                                ",
"               ..               ",
"               ..               ",
"               ..               ",
"               ..               ",
"               ..               ",
"         ..    ..               ",
"         ..    ..               ",
"         ..    ..    ..         ",
"         ..    ..    ..         ",
"         ..    ..    ..         ",
"         ..    ..    ..         ",
"         ..    ..    ..         ",
"         ..    ..    ..         ",
"         ..    ........         ",
"         ..    ........         ",
"         ........               ",
"         ........               ",
"               ..               ",
"               ..               ",
"               ..               ",
"               ..               ",
"               ..               ",
"               ..               ",
"               ..               ",
"               ..               ",
"               ..               ",
"               ..               ",
"               ..               ",
"                                ",
"                                "
};
