/* XPM */
static char *_711066ee94642e19222c991e7a894f6E98R3Asurl81s7sE[] = {
/* columns rows colors chars-per-pixel */
"32 32 2 1 ",
"  c black",
". c white",
/* pixels */
"                                ",
"                                ",
"                                ",
"                                ",
"         ..............         ",
"         ..............         ",
"         ..............         ",
"         ..............         ",
"         ....                   ",
"         ....                   ",
"         ....                   ",
"         ....                   ",
"         ....                   ",
"         ....                   ",
"         ..............         ",
"         ..............         ",
"         ..............         ",
"         ..............         ",
"         ....      ....         ",
"         ....      ....         ",
"         ....      ....         ",
"         ....      ....         ",
"         ....      ....         ",
"         ....      ....         ",
"         ..............         ",
"         ..............         ",
"         ..............         ",
"         ..............         ",
"                                ",
"                                ",
"                                ",
"                                "
};
