/* XPM */
static char *_e7b50ebef4d4215d6dc5dbfafcef23cEGgWJO88MiZpUtAm[] = {
/* columns rows colors chars-per-pixel */
"32 32 2 1 ",
"  c black",
". c white",
/* pixels */
"                                ",
"                                ",
"                                ",
"                                ",
"         ..............         ",
"         ..............         ",
"         ..............         ",
"         ..............         ",
"         ....                   ",
"         ....                   ",
"         ....                   ",
"         ....                   ",
"         ....                   ",
"         ....                   ",
"         ..............         ",
"         ..............         ",
"         ..............         ",
"         ..............         ",
"                   ....         ",
"                   ....         ",
"                   ....         ",
"                   ....         ",
"                   ....         ",
"                   ....         ",
"         ..............         ",
"         ..............         ",
"         ..............         ",
"         ..............         ",
"                                ",
"                                ",
"                                ",
"                                "
};
