/* XPM */
static char *_f1e2aacfb6f48dfe972d8b686077f5371qVqaKoE5PA2SCK[] = {
/* columns rows colors chars-per-pixel */
"32 32 2 1 ",
"  c black",
". c white",
/* pixels */
"                                ",
"                                ",
"                                ",
"                                ",
"         ..............         ",
"         ..............         ",
"         ..............         ",
"         ..............         ",
"                   ....         ",
"                   ....         ",
"                   ....         ",
"                   ....         ",
"                   ....         ",
"                   ....         ",
"         ..............         ",
"         ..............         ",
"         ..............         ",
"         ..............         ",
"                   ....         ",
"                   ....         ",
"                   ....         ",
"                   ....         ",
"                   ....         ",
"                   ....         ",
"         ..............         ",
"         ..............         ",
"         ..............         ",
"         ..............         ",
"                                ",
"                                ",
"                                ",
"                                "
};
