/* XPM */
static char *_8fdc37a702445e48d4e14569837dedcs85pRYbnzY2qhahi[] = {
/* columns rows colors chars-per-pixel */
"32 32 2 1 ",
"  c black",
". c white",
/* pixels */
"                                ",
"                                ",
"                                ",
"                                ",
"         ....      ....         ",
"         ....      ....         ",
"         ....      ....         ",
"         ....      ....         ",
"         ....      ....         ",
"         ....      ....         ",
"         ....      ....         ",
"         ....      ....         ",
"         ....      ....         ",
"         ....      ....         ",
"         ..............         ",
"         ..............         ",
"         ..............         ",
"         ..............         ",
"                   ....         ",
"                   ....         ",
"                   ....         ",
"                   ....         ",
"                   ....         ",
"                   ....         ",
"                   ....         ",
"                   ....         ",
"                   ....         ",
"                   ....         ",
"                                ",
"                                ",
"                                ",
"                                "
};
