/* XPM */
static char *_ec43afd628f4b5bcfc7c8ed63c47fdfoWIq9JfoS6e8aiI7[] = {
/* columns rows colors chars-per-pixel */
"32 32 2 1 ",
"  c black",
". c white",
/* pixels */
"                                ",
"                                ",
"                                ",
"                                ",
"         ..............         ",
"         ..............         ",
"         ..............         ",
"         ..............         ",
"         ....      ....         ",
"         ....      ....         ",
"         ....      ....         ",
"         ....      ....         ",
"         ....      ....         ",
"         ....      ....         ",
"         ..............         ",
"         ..............         ",
"         ..............         ",
"         ..............         ",
"         ....      ....         ",
"         ....      ....         ",
"         ....      ....         ",
"         ....      ....         ",
"         ....      ....         ",
"         ....      ....         ",
"         ..............         ",
"         ..............         ",
"         ..............         ",
"         ..............         ",
"                                ",
"                                ",
"                                ",
"                                "
};
