/* XPM */
static char *_18aa2cd792b47cba371d9c2a77abf28mRC135VCxUHNBIQX[] = {
/* columns rows colors chars-per-pixel */
"32 32 2 1 ",
"  c black",
". c white",
/* pixels */
"                                ",
"                                ",
"                                ",
"                                ",
"         ..............         ",
"         ..............         ",
"         ..............         ",
"         ..............         ",
"                   ....         ",
"                   ....         ",
"                   ....         ",
"                   ....         ",
"                   ....         ",
"                   ....         ",
"         ..............         ",
"         ..............         ",
"         ..............         ",
"         ..............         ",
"         ....                   ",
"         ....                   ",
"         ....                   ",
"         ....                   ",
"         ....                   ",
"         ....                   ",
"         ..............         ",
"         ..............         ",
"         ..............         ",
"         ..............         ",
"                                ",
"                                ",
"                                ",
"                                "
};
