/* XPM */
static char *_caf05fe7dfe40d6901df75c465975d4UyWdBi5PVZ23jOLV[] = {
/* columns rows colors chars-per-pixel */
"32 32 2 1 ",
"  c black",
". c white",
/* pixels */
"                                ",
"                                ",
"                                ",
"                                ",
"         ..............         ",
"         ..............         ",
"         ..............         ",
"         ..............         ",
"         ....      ....         ",
"         ....      ....         ",
"         ....      ....         ",
"         ....      ....         ",
"         ....      ....         ",
"         ....      ....         ",
"         ..............         ",
"         ..............         ",
"         ..............         ",
"         ..............         ",
"                   ....         ",
"                   ....         ",
"                   ....         ",
"                   ....         ",
"                   ....         ",
"                   ....         ",
"         ..............         ",
"         ..............         ",
"         ..............         ",
"         ..............         ",
"                                ",
"                                ",
"                                ",
"                                "
};
